<svg id="Layer_1" data-name="Layer 1" xmlns="http://www.w3.org/2000/svg" viewBox="0 0 500 500"><defs><style>.cls-1{fill:#c1272d;}.cls-2{font-size:53.08px;font-family:Montserrat-Regular, Montserrat;}.cls-12,.cls-2,.cls-3,.cls-5,.cls-8{fill:#fff;}.cls-3{font-size:51.82px;font-family:Montserrat-Thin, Montserrat;font-weight:200;}.cls-4{fill:#0000b6;}.cls-5,.cls-8{font-size:41.54px;font-family:Montserrat-SemiBold, Montserrat;font-weight:600;}.cls-5{letter-spacing:-0.01em;}.cls-6{letter-spacing:-0.02em;}.cls-7{letter-spacing:-0.01em;}.cls-8{letter-spacing:-0.01em;}.cls-9{letter-spacing:-0.02em;}.cls-10{letter-spacing:-0.01em;}.cls-11{fill:#c90c0f;}.cls-13{fill:#1d1d1b;}</style></defs><circle cx="249.86" cy="250" r="238.29"/><path class="cls-1" d="M249.86,489.73A239.79,239.79,0,0,1,156.54,29.11,239.79,239.79,0,0,1,343.17,470.89,238.25,238.25,0,0,1,249.86,489.73Zm0-476.57a236.9,236.9,0,0,0-92.19,455.07A236.9,236.9,0,0,0,342.05,31.77,235.38,235.38,0,0,0,249.86,13.16Z"/><text class="cls-2" transform="matrix(0.34, -0.94, 0.94, 0.34, 77.72, 206.69)">C</text><text class="cls-2" transform="translate(88.52 174.75) rotate(-58.04)">O</text><text class="cls-2" transform="matrix(0.72, -0.69, 0.69, 0.72, 109.37, 139.75)">M</text><text class="cls-2" transform="translate(142.8 107.63) rotate(-30.81)">B</text><text class="cls-2" transform="translate(174.26 88.59) rotate(-19.23)">A</text><text class="cls-2" transform="translate(203.68 78.08) rotate(-10.29)">T</text><text class="cls-2" transform="translate(232.17 73.3) rotate(-3.61)"> </text><text class="cls-2" transform="matrix(1, 0.09, -0.09, 1, 244.25, 71.33)">H</text><text class="cls-2" transform="translate(283.89 74.64) rotate(16.94)">A</text><text class="cls-2" transform="translate(317.29 84.48) rotate(28.26)">P</text><text class="cls-2" transform="translate(347.17 100.09) rotate(39.08)">K</text><text class="cls-2" transform="matrix(0.68, 0.73, -0.73, 0.68, 373.84, 122.43)">I</text><text class="cls-2" transform="translate(383.27 130.58) rotate(55.22)">D</text><text class="cls-2" transform="translate(406.83 163.78) rotate(68.46)">O</text><text class="cls-3" transform="translate(35.88 285.29) rotate(75.59)">R</text><text class="cls-3" transform="translate(46.63 326.22) rotate(63.55)">O</text><text class="cls-3" transform="matrix(0.61, 0.79, -0.79, 0.61, 68.11, 367.7)">V</text><text class="cls-3" transform="matrix(0.73, 0.68, -0.68, 0.73, 89.6, 395.66)">A</text><text class="cls-3" transform="translate(119.29 423.17) rotate(31.42)">N</text><text class="cls-3" transform="matrix(0.92, 0.4, -0.4, 0.92, 157.16, 445.06)">I</text><text class="cls-3" transform="translate(171.34 451.79) rotate(16.73)">E</text><text class="cls-3" transform="translate(207.64 463.15) rotate(4.81)">M</text><text class="cls-3" transform="translate(259.14 465.95) rotate(-4.23)">I</text><text class="cls-3" transform="translate(275.79 464.61) rotate(-8.41)"> </text><text class="cls-3" transform="matrix(0.99, -0.16, 0.16, 0.99, 277.07, 464.48)">•</text><text class="cls-3" transform="translate(293.66 461.75) rotate(-13.21)"> </text><text class="cls-3" transform="matrix(0.96, -0.29, 0.29, 0.96, 296.66, 461.65)">F</text><text class="cls-3" transform="translate(328.5 451.58) rotate(-23.12)">I</text><text class="cls-3" transform="translate(343.92 445.92) rotate(-31.06)">N</text><text class="cls-3" transform="matrix(0.75, -0.66, 0.66, 0.75, 382.13, 421.98)">L</text><text class="cls-3" transform="translate(410.19 396.77) rotate(-51.99)">A</text><text class="cls-3" transform="translate(434.99 364.79) rotate(-63.58)">N</text><text class="cls-3" transform="translate(455.24 323.1) rotate(-75.85)">D</text><circle class="cls-4" cx="249.86" cy="249.99" r="155.78"/><path d="M249.86,407.79a157.8,157.8,0,1,1,111.58-46.22A156.78,156.78,0,0,1,249.86,407.79Zm0-311.56a153.76,153.76,0,1,0,108.72,45A152.77,152.77,0,0,0,249.86,96.23Z"/><text class="cls-5" transform="translate(24.51 255.16)">6<tspan class="cls-6" x="25.67" y="0">6̊</tspan><tspan class="cls-7" x="50.77" y="0">°</tspan></text><text class="cls-8" transform="translate(416.54 255.16)">3<tspan class="cls-9" x="23.61" y="0">3</tspan><tspan class="cls-10" x="47" y="0">&quot;</tspan></text><circle cx="249.86" cy="250" r="238.29"/><path class="cls-1" d="M249.86,489.73A239.79,239.79,0,0,1,156.54,29.11,239.79,239.79,0,0,1,343.17,470.89,238.25,238.25,0,0,1,249.86,489.73Zm0-476.57a236.9,236.9,0,0,0-92.19,455.07A236.9,236.9,0,0,0,342.05,31.77,235.38,235.38,0,0,0,249.86,13.16Z"/><text class="cls-2" transform="matrix(0.34, -0.94, 0.94, 0.34, 77.72, 206.69)">C</text><text class="cls-2" transform="translate(88.52 174.75) rotate(-58.04)">O</text><text class="cls-2" transform="matrix(0.72, -0.69, 0.69, 0.72, 109.37, 139.75)">M</text><text class="cls-2" transform="translate(142.8 107.63) rotate(-30.81)">B</text><text class="cls-2" transform="translate(174.26 88.59) rotate(-19.23)">A</text><text class="cls-2" transform="translate(203.68 78.08) rotate(-10.29)">T</text><text class="cls-2" transform="translate(232.17 73.3) rotate(-3.61)"> </text><text class="cls-2" transform="matrix(1, 0.09, -0.09, 1, 244.25, 71.33)">H</text><text class="cls-2" transform="translate(283.89 74.64) rotate(16.94)">A</text><text class="cls-2" transform="translate(317.29 84.48) rotate(28.26)">P</text><text class="cls-2" transform="translate(347.17 100.09) rotate(39.08)">K</text><text class="cls-2" transform="matrix(0.68, 0.73, -0.73, 0.68, 373.84, 122.43)">I</text><text class="cls-2" transform="translate(383.27 130.58) rotate(55.22)">D</text><text class="cls-2" transform="translate(406.83 163.78) rotate(68.46)">O</text><text class="cls-3" transform="translate(35.88 285.29) rotate(75.59)">R</text><text class="cls-3" transform="translate(46.63 326.22) rotate(63.55)">O</text><text class="cls-3" transform="matrix(0.61, 0.79, -0.79, 0.61, 68.11, 367.7)">V</text><text class="cls-3" transform="matrix(0.73, 0.68, -0.68, 0.73, 89.6, 395.66)">A</text><text class="cls-3" transform="translate(119.29 423.17) rotate(31.42)">N</text><text class="cls-3" transform="matrix(0.92, 0.4, -0.4, 0.92, 157.16, 445.06)">I</text><text class="cls-3" transform="translate(171.34 451.79) rotate(16.73)">E</text><text class="cls-3" transform="translate(207.64 463.15) rotate(4.81)">M</text><text class="cls-3" transform="translate(259.14 465.95) rotate(-4.23)">I</text><text class="cls-3" transform="translate(275.79 464.61) rotate(-8.41)"> </text><text class="cls-3" transform="matrix(0.99, -0.16, 0.16, 0.99, 277.07, 464.48)">•</text><text class="cls-3" transform="translate(293.66 461.75) rotate(-13.21)"> </text><text class="cls-3" transform="matrix(0.96, -0.29, 0.29, 0.96, 296.66, 461.65)">F</text><text class="cls-3" transform="translate(328.5 451.58) rotate(-23.12)">I</text><text class="cls-3" transform="translate(343.92 445.92) rotate(-31.06)">N</text><text class="cls-3" transform="matrix(0.75, -0.66, 0.66, 0.75, 382.13, 421.98)">L</text><text class="cls-3" transform="translate(410.19 396.77) rotate(-51.99)">A</text><text class="cls-3" transform="translate(434.99 364.79) rotate(-63.58)">N</text><text class="cls-3" transform="translate(455.24 323.1) rotate(-75.85)">D</text><circle class="cls-4" cx="249.86" cy="249.99" r="155.78"/><path d="M249.86,407.79a157.8,157.8,0,1,1,111.58-46.22A156.78,156.78,0,0,1,249.86,407.79Zm0-311.56a153.76,153.76,0,1,0,108.72,45A152.77,152.77,0,0,0,249.86,96.23Z"/><text class="cls-5" transform="translate(24.51 255.16)">6<tspan class="cls-6" x="25.67" y="0">6̊</tspan><tspan class="cls-7" x="50.77" y="0">°</tspan></text><text class="cls-8" transform="translate(416.54 255.16)">3<tspan class="cls-9" x="23.61" y="0">3</tspan><tspan class="cls-10" x="47" y="0">&quot;</tspan></text><circle cx="249.86" cy="250" r="238.29"/><path class="cls-1" d="M249.86,489.73A239.79,239.79,0,0,1,156.54,29.11,239.79,239.79,0,0,1,343.17,470.89,238.25,238.25,0,0,1,249.86,489.73Zm0-476.57a236.9,236.9,0,0,0-92.19,455.07A236.9,236.9,0,0,0,342.05,31.77,235.38,235.38,0,0,0,249.86,13.16Z"/><text class="cls-2" transform="matrix(0.34, -0.94, 0.94, 0.34, 77.72, 206.69)">C</text><text class="cls-2" transform="translate(88.52 174.75) rotate(-58.04)">O</text><text class="cls-2" transform="matrix(0.72, -0.69, 0.69, 0.72, 109.37, 139.75)">M</text><text class="cls-2" transform="translate(142.8 107.63) rotate(-30.81)">B</text><text class="cls-2" transform="translate(174.26 88.59) rotate(-19.23)">A</text><text class="cls-2" transform="translate(203.68 78.08) rotate(-10.29)">T</text><text class="cls-2" transform="translate(232.17 73.3) rotate(-3.61)"> </text><text class="cls-2" transform="matrix(1, 0.09, -0.09, 1, 244.25, 71.33)">H</text><text class="cls-2" transform="translate(283.89 74.64) rotate(16.94)">A</text><text class="cls-2" transform="translate(317.29 84.48) rotate(28.26)">P</text><text class="cls-2" transform="translate(347.17 100.09) rotate(39.08)">K</text><text class="cls-2" transform="matrix(0.68, 0.73, -0.73, 0.68, 373.84, 122.43)">I</text><text class="cls-2" transform="translate(383.27 130.58) rotate(55.22)">D</text><text class="cls-2" transform="translate(406.83 163.78) rotate(68.46)">O</text><text class="cls-3" transform="translate(35.88 285.29) rotate(75.59)">R</text><text class="cls-3" transform="translate(46.63 326.22) rotate(63.55)">O</text><text class="cls-3" transform="matrix(0.61, 0.79, -0.79, 0.61, 68.11, 367.7)">V</text><text class="cls-3" transform="matrix(0.73, 0.68, -0.68, 0.73, 89.6, 395.66)">A</text><text class="cls-3" transform="translate(119.29 423.17) rotate(31.42)">N</text><text class="cls-3" transform="matrix(0.92, 0.4, -0.4, 0.92, 157.16, 445.06)">I</text><text class="cls-3" transform="translate(171.34 451.79) rotate(16.73)">E</text><text class="cls-3" transform="translate(207.64 463.15) rotate(4.81)">M</text><text class="cls-3" transform="translate(259.14 465.95) rotate(-4.23)">I</text><text class="cls-3" transform="translate(275.79 464.61) rotate(-8.41)"> </text><text class="cls-3" transform="matrix(0.99, -0.16, 0.16, 0.99, 277.07, 464.48)">•</text><text class="cls-3" transform="translate(293.66 461.75) rotate(-13.21)"> </text><text class="cls-3" transform="matrix(0.96, -0.29, 0.29, 0.96, 296.66, 461.65)">F</text><text class="cls-3" transform="translate(328.5 451.58) rotate(-23.12)">I</text><text class="cls-3" transform="translate(343.92 445.92) rotate(-31.06)">N</text><text class="cls-3" transform="matrix(0.75, -0.66, 0.66, 0.75, 382.13, 421.98)">L</text><text class="cls-3" transform="translate(410.19 396.77) rotate(-51.99)">A</text><text class="cls-3" transform="translate(434.99 364.79) rotate(-63.58)">N</text><text class="cls-3" transform="translate(455.24 323.1) rotate(-75.85)">D</text><circle class="cls-4" cx="249.86" cy="249.99" r="155.78"/><path d="M249.86,407.79a157.8,157.8,0,1,1,111.58-46.22A156.78,156.78,0,0,1,249.86,407.79Zm0-311.56a153.76,153.76,0,1,0,108.72,45A152.77,152.77,0,0,0,249.86,96.23Z"/><text class="cls-5" transform="translate(24.51 255.16)">6<tspan class="cls-6" x="25.67" y="0">6̊</tspan><tspan class="cls-7" x="50.77" y="0">°</tspan></text><text class="cls-8" transform="translate(416.54 255.16)">3<tspan class="cls-9" x="23.61" y="0">3</tspan><tspan class="cls-10" x="47" y="0">&quot;</tspan></text><circle class="cls-11" cx="249.86" cy="250" r="238.29"/><path class="cls-11" d="M249.86,489.73A239.79,239.79,0,0,1,156.54,29.11,239.79,239.79,0,0,1,343.17,470.89,238.25,238.25,0,0,1,249.86,489.73Zm0-476.57a236.9,236.9,0,0,0-92.19,455.07A236.9,236.9,0,0,0,342.05,31.77,235.38,235.38,0,0,0,249.86,13.16Z"/><path class="cls-12" d="M77.9,197.54a17.81,17.81,0,0,1-8.56,4.27,19.49,19.49,0,0,1-18-6.35,17.73,17.73,0,0,1-4-8.73,20.21,20.21,0,0,1,1-10.11,20.7,20.7,0,0,1,3.94-6.86,15.86,15.86,0,0,1,6-4.27l2,4.27A13.54,13.54,0,0,0,52.85,178a14.77,14.77,0,0,0-.73,7.51,13.11,13.11,0,0,0,3,6.49,14.74,14.74,0,0,0,13.46,4.76A13.2,13.2,0,0,0,75,193.58a14.77,14.77,0,0,0,4.15-6.3,13.57,13.57,0,0,0-.7-11.1l4.21-2.09a16.11,16.11,0,0,1,2,7.12,20.51,20.51,0,0,1-1.24,7.86A20.09,20.09,0,0,1,77.9,197.54Z"/><path class="cls-12" d="M91.2,165.56A17.83,17.83,0,0,1,81.89,168a19.17,19.17,0,0,1-16.21-9.92,17.93,17.93,0,0,1-2.07-9.4,21.46,21.46,0,0,1,10.33-16.87,17.77,17.77,0,0,1,9.28-2.42,19.48,19.48,0,0,1,16.25,9.95,17.73,17.73,0,0,1,2.06,9.36A21.46,21.46,0,0,1,91.2,165.56Zm5.5-16.7A13.34,13.34,0,0,0,95.06,142a13.93,13.93,0,0,0-5.13-5.3,14.1,14.1,0,0,0-7.05-2.16,13.37,13.37,0,0,0-6.9,1.68,14.26,14.26,0,0,0-5.31,5.19,14.61,14.61,0,0,0-2.23,7.12,13.24,13.24,0,0,0,1.61,7,14.78,14.78,0,0,0,12.18,7.46,13.18,13.18,0,0,0,6.93-1.73A14.58,14.58,0,0,0,94.5,156,14.35,14.35,0,0,0,96.7,148.86Z"/><path class="cls-12" d="M135.4,114,116.79,95.17l6.12,24.94-1.71,1.68-24.73-6.41,18.46,18.77-3.55,3.49-25.49-25.9,3-3,28.73,7.57-7.26-28.69,3-3L139,110.51Z"/><path class="cls-12" d="M162.85,77.28a9.16,9.16,0,0,1,4.59,4,8.43,8.43,0,0,1,.73,8.06q-1.72,4-7.54,7.55l-14.83,9L127,74.86l13.94-8.46q5.33-3.23,9.53-2.86a8.07,8.07,0,0,1,6.49,4.14,8.92,8.92,0,0,1,1.42,4.9,8.59,8.59,0,0,1-1.39,4.55A9.29,9.29,0,0,1,162.85,77.28Zm-29.28-1.52,6,9.94,9.1-5.52a10.81,10.81,0,0,0,4.5-4.45,5.45,5.45,0,0,0-4.5-7.42,10.83,10.83,0,0,0-6,1.93Zm29.63,13a5.07,5.07,0,0,0-.46-5.06q-3.15-5.2-10.75-.59L141.78,89.3l6.28,10.35,10.21-6.2C160.79,91.93,162.43,90.36,163.2,88.76Z"/><path class="cls-12" d="M196.49,71.31l-18.2,6.48-.71,9.9-5,1.8,3.3-39.77L180.69,48l27.75,28.7-5.13,1.83ZM193.38,68,180,53.86l-1.41,19.41Z"/><path class="cls-12" d="M211.65,44.51l-12.28,2.13-.78-4.45,29.62-5.14L229,41.5l-12.28,2.13L222.16,75l-5.07.88Z"/><path class="cls-12" d="M284.64,38.62,281.5,74.83l-5.18-.45,1.41-16.14-20.8-1.8-1.4,16.14-5.18-.45,3.15-36.21,5.17.45-1.35,15.57,20.8,1.8,1.35-15.57Z"/><path class="cls-12" d="M314.48,74.71,296,69.06l-6.48,7.52L284.41,75l26.37-29.95,4.92,1.5,5.16,39.59-5.21-1.59Zm-.52-4.5-2.29-19.33L299,65.62Z"/><path class="cls-12" d="M361.3,70.85a11.45,11.45,0,0,1-.85,10.1,11.45,11.45,0,0,1-8,6.25q-5.18,1-11.38-2.31l-7.91-4.27L328,90.31l-4.57-2.47,17.28-32,12.47,6.74Q359.34,66,361.3,70.85ZM350.72,82.57a7.32,7.32,0,0,0,5.16-4.09,7.31,7.31,0,0,0,.59-6.55q-1.29-3.09-5.62-5.43l-7.77-4.2-7.75,14.35,7.77,4.19C346,82.41,348.53,83,350.72,82.57Z"/><path class="cls-12" d="M372.8,100l-9.42,1-6,7.26-4-3.3,23.09-28.08,4,3.3L367.6,95.85l28.14-3.14,4.57,3.76-22.38,2.77.05,25.93-4.69-3.86Z"/><path class="cls-12" d="M406.53,103.77l3.52,3.82-26.73,24.64-3.51-3.82Z"/><path class="cls-12" d="M419.74,118.22l8.55,12.71a22.07,22.07,0,0,1,3.82,9.76,16.82,16.82,0,0,1-1.46,9.33,19.4,19.4,0,0,1-15.72,10.58,16.77,16.77,0,0,1-9.19-2.17,22.17,22.17,0,0,1-7.61-7.22l-8.55-12.71Zm-18,30.21a16.9,16.9,0,0,0,5.75,5.49,12.38,12.38,0,0,0,6.87,1.6,14.91,14.91,0,0,0,11.85-8,12.41,12.41,0,0,0,1.1-7,16.87,16.87,0,0,0-2.91-7.4l-5.48-8.14-22.66,15.24Z"/><path class="cls-12" d="M415.47,177.71a17.8,17.8,0,0,1,3.76-8.86A19.2,19.2,0,0,1,437,162.07a17.89,17.89,0,0,1,8.71,4.1,21.5,21.5,0,0,1,7.06,18.48,17.77,17.77,0,0,1-3.75,8.82,19.44,19.44,0,0,1-17.8,6.8,17.59,17.59,0,0,1-8.67-4.08,21.43,21.43,0,0,1-7.06-18.48Zm9.86,14.55a13.31,13.31,0,0,0,6.48,2.92,14.76,14.76,0,0,0,13.34-5.1,13.31,13.31,0,0,0,2.88-6.49,14.12,14.12,0,0,0-.87-7.37,14.51,14.51,0,0,0-4.28-6.12,13.13,13.13,0,0,0-6.49-3,14.72,14.72,0,0,0-13.34,5.09,13.26,13.26,0,0,0-2.87,6.54,14.59,14.59,0,0,0,.89,7.42A14.3,14.3,0,0,0,425.33,192.26Z"/><path class="cls-12" d="M43.39,305.84l8.68-9.51c-.26-.88-.45-1.58-.56-2.09L49.67,286l-10.19,2.26-1.07-4.79L71.93,276l2.9,13.07Q76.27,295.58,74,300a10.81,10.81,0,0,1-7.74,5.64,11.52,11.52,0,0,1-7-.45A11,11,0,0,1,54,300.61l-9.49,10.45Zm15.66-6.14a7,7,0,0,0,6.14,1.15,6.94,6.94,0,0,0,5-3.63q1.41-2.82.4-7.37l-1.81-8.14-15.08,3.34,1.81,8.14C56.22,296.23,57.39,298.39,59.05,299.7Z"/><path class="cls-12" d="M52.94,328.26a16.83,16.83,0,0,1,3-8.56,18.15,18.15,0,0,1,16.36-7.41,16.93,16.93,0,0,1,8.44,3.37,20.25,20.25,0,0,1,7.7,17,16.74,16.74,0,0,1-3,8.53,18.39,18.39,0,0,1-16.4,7.43,16.76,16.76,0,0,1-8.4-3.36,20.3,20.3,0,0,1-7.71-17Zm10.13,13.15a12.6,12.6,0,0,0,6.27,2.39,14,14,0,0,0,12.29-5.57A12.66,12.66,0,0,0,84,332a13.54,13.54,0,0,0-1.24-6.9,13.76,13.76,0,0,0-4.39-5.52,12.48,12.48,0,0,0-6.29-2.43,13.95,13.95,0,0,0-12.28,5.56A12.46,12.46,0,0,0,57.45,329a13.71,13.71,0,0,0,1.25,6.94A13.48,13.48,0,0,0,63.07,341.41Z"/><path class="cls-12" d="M114.23,368.3,77.54,376l-2.82-3.95,19.14-32.25,3.08,4.31L81.19,370.58l30.18-6.27Z"/><path class="cls-12" d="M113.58,403.28,100.5,390.56l-8.69,3.51-3.62-3.52,35.08-13.77,3.48,3.39L114,415.65l-3.69-3.59Zm1.5-4L121.5,382l-17,6.9Z"/><path class="cls-12" d="M166,409l-18.47,28.93-3.39-2.16L140.5,403.1l-13.77,21.58L122.59,422l18.47-28.94,3.39,2.17L148,427.93l13.77-21.58Z"/><path class="cls-12" d="M174.36,412.5l4.47,2-14.05,31.32-4.47-2Z"/><path class="cls-12" d="M202.27,454.24,201,458.32l-23.84-7.25,10-32.84,23.18,7-1.24,4.09-18.48-5.62-3.07,10.08,16.47,5-1.22,4-16.46-5-3.23,10.61Z"/><path class="cls-12" d="M246.22,464l2-24.93-14.1,19.74-2.25-.19L221.26,437l-2.07,24.78-4.69-.39,2.85-34.21,4,.33,12.27,25.24,16.08-22.87,4,.33-2.8,34.21Z"/><path class="cls-12" d="M262.77,428.93l4.89-.4,2.79,34.22-4.89.4Z"/><path class="cls-12" d="M280.66,447.39a4.32,4.32,0,0,1-1.82-3,4.24,4.24,0,0,1,.78-3.34,4.3,4.3,0,0,1,2.88-1.8,4.23,4.23,0,0,1,3.28.76,4.48,4.48,0,0,1-5.12,7.36Z"/><path class="cls-12" d="M298.89,427.23l3.49,11.44,16.47-5,1.23,4-16.47,5L307.66,456,303,457.41l-10-32.83,23.17-7.07,1.25,4.08Z"/><path class="cls-12" d="M321.26,414.84l4.48-2,14,31.36-4.48,2Z"/><path class="cls-12" d="M359.1,393.55l18.36,29-3.39,2.15L343,414.09l13.69,21.63-4.14,2.63-18.37-29,3.4-2.15,31.1,10.61L355,396.17Z"/><path class="cls-12" d="M365.91,387.71l3.6-3.33,20.41,22.07,13.65-12.62,2.89,3.13-17.24,16Z"/><path class="cls-12" d="M419.82,366.51l-11,14.53,4.55,8.2-3.06,4-17.94-33.14,2.94-3.86,36.77,8.33-3.11,4.1Zm-4.17-1-17.87-4.28,8.92,16.07Z"/><path class="cls-12" d="M419.11,313.84l31,14.81-1.74,3.63-32,7.54,23.09,11-2.11,4.43-31-14.82,1.73-3.63,32-7.53L417,318.26Z"/><path class="cls-12" d="M422.09,305.47l3.33-14.08a21,21,0,0,1,4.32-8.9,15.85,15.85,0,0,1,7.4-5,18.36,18.36,0,0,1,17.42,4.11,15.78,15.78,0,0,1,4.39,7.77,20.77,20.77,0,0,1-.12,9.9l-3.33,14.08Zm32.52-6.88a15.78,15.78,0,0,0,.11-7.5,11.64,11.64,0,0,0-3.29-5.8,14.12,14.12,0,0,0-13.13-3.1,11.68,11.68,0,0,0-5.53,3.71,15.82,15.82,0,0,0-3.26,6.76l-2.14,9,25.11,5.93Z"/><circle cx="249.86" cy="249.99" r="155.78"/><path d="M249.86,407.21a157.22,157.22,0,1,1,111.17-46A156.19,156.19,0,0,1,249.86,407.21Zm0-311.56A154.32,154.32,0,1,0,359,140.85,153.33,153.33,0,0,0,249.86,95.65Z"/><path class="cls-12" d="M39.27,235.43a8.43,8.43,0,0,1,3.58,3.14,8.63,8.63,0,0,1,1.28,4.69,8.79,8.79,0,0,1-1.41,5,9.33,9.33,0,0,1-3.82,3.31,12.36,12.36,0,0,1-5.4,1.16q-6,0-9.29-3.74t-3.3-10.72a18.15,18.15,0,0,1,1.79-8.37,12.37,12.37,0,0,1,5-5.27,15,15,0,0,1,7.46-1.81,17.83,17.83,0,0,1,4.22.48,11.51,11.51,0,0,1,3.42,1.39l-2,4.07a9.92,9.92,0,0,0-5.52-1.41,8.5,8.5,0,0,0-6.57,2.57q-2.37,2.58-2.37,7.44v0a8,8,0,0,1,3.29-2.26,12.42,12.42,0,0,1,4.48-.77A11.76,11.76,0,0,1,39.27,235.43Zm-2,11.67a4.89,4.89,0,0,0,0-7.2,6.33,6.33,0,0,0-4.24-1.33A6.28,6.28,0,0,0,28.83,240a4.69,4.69,0,0,0,0,7.08,6.53,6.53,0,0,0,4.43,1.39A6.09,6.09,0,0,0,37.32,247.1Z"/><path class="cls-12" d="M65.53,235.43a8.46,8.46,0,0,1,3.57,3.14,8.56,8.56,0,0,1,1.29,4.69,8.79,8.79,0,0,1-1.41,5,9.42,9.42,0,0,1-3.83,3.31,12.3,12.3,0,0,1-5.4,1.16q-6,0-9.28-3.74t-3.3-10.72A18.15,18.15,0,0,1,49,229.86a12.34,12.34,0,0,1,5-5.27,14.91,14.91,0,0,1,7.46-1.81,17.74,17.74,0,0,1,4.21.48,11.46,11.46,0,0,1,3.43,1.39l-2,4.07a9.92,9.92,0,0,0-5.52-1.41A8.47,8.47,0,0,0,55,229.88q-2.37,2.58-2.37,7.44v0a8,8,0,0,1,3.28-2.26,12.47,12.47,0,0,1,4.49-.77A11.79,11.79,0,0,1,65.53,235.43Zm-2,11.67a4.91,4.91,0,0,0,0-7.2,6.37,6.37,0,0,0-4.24-1.33A6.29,6.29,0,0,0,55.08,240a4.52,4.52,0,0,0-1.64,3.57,4.45,4.45,0,0,0,1.6,3.51,6.49,6.49,0,0,0,4.42,1.39A6.14,6.14,0,0,0,63.58,247.1Z"/><path class="cls-12" d="M76,235.85a7,7,0,0,1-2.56-2.52,6.73,6.73,0,0,1-.93-3.49,6.87,6.87,0,0,1,3.49-6,7.25,7.25,0,0,1,7.14,0,7,7,0,0,1,2.56,2.53,6.88,6.88,0,0,1,.93,3.51,6.73,6.73,0,0,1-.93,3.49,7.22,7.22,0,0,1-9.7,2.52Zm6.54-3a4.09,4.09,0,0,0,1.18-3,4.13,4.13,0,0,0-1.18-3,4,4,0,0,0-3-1.2,4.22,4.22,0,1,0,0,8.43A4,4,0,0,0,82.54,232.83Z"/><path class="cls-12" d="M435.75,237.94a7.88,7.88,0,0,1,2.12,5.61,8.55,8.55,0,0,1-1.29,4.61,8.8,8.8,0,0,1-3.89,3.3,14.7,14.7,0,0,1-6.33,1.23,20.31,20.31,0,0,1-6-.89,15.51,15.51,0,0,1-4.93-2.47l2.33-4.2a11.61,11.61,0,0,0,3.84,2.1,14.53,14.53,0,0,0,4.68.77,7.54,7.54,0,0,0,4.5-1.19,4,4,0,0,0,.09-6.4,8.09,8.09,0,0,0-4.76-1.14h-2.66v-3.69l6.61-7.86H416.85V223.2h19.81v3.61l-7.06,8.39A9.85,9.85,0,0,1,435.75,237.94Z"/><path class="cls-12" d="M459.92,237.94a7.83,7.83,0,0,1,2.12,5.61,8.55,8.55,0,0,1-1.29,4.61,8.72,8.72,0,0,1-3.88,3.3,14.72,14.72,0,0,1-6.34,1.23,20.41,20.41,0,0,1-6-.89,15.56,15.56,0,0,1-4.92-2.47l2.33-4.2a11.61,11.61,0,0,0,3.84,2.1,14.52,14.52,0,0,0,4.67.77,7.59,7.59,0,0,0,4.51-1.19,4,4,0,0,0,.08-6.4,8.05,8.05,0,0,0-4.75-1.14h-2.66v-3.69l6.6-7.86H441V223.2h19.82v3.61l-7.06,8.39A9.8,9.8,0,0,1,459.92,237.94Z"/><path class="cls-12" d="M465.86,223.2h4.49L470,234.7H466.2Zm8,0h4.49L478,234.7h-3.78Z"/><path class="cls-12" d="M251.34,406.06h-1.49a.86.86,0,0,1-.86-.84.87.87,0,0,1,.81-.88c19.6-1.24,37.05-8.58,50.49-21.24a79.42,79.42,0,0,0,23.52-43.95,74,74,0,0,0-6.88-46.94c-7.95-15.43-21.48-27.66-39.16-35.4a42.94,42.94,0,0,1-31.25,13.31c-15.43,0-33.88-8.63-39.54-32.84a72.48,72.48,0,0,1-20.87-20.11c-9.2-13.09-14.25-28.44-15-45.6,0-18.84,6.3-37.41,17.29-51,13.86-17.14,35.1-26.75,61.43-27.79A156.86,156.86,0,0,1,361.11,360a153.28,153.28,0,0,1-109.77,46.07Z"/><path d="M249.86,93.63A155.78,155.78,0,0,1,405.64,249.41c0,85.54-68.95,155.79-154.3,155.79h-1.48c82.5-5.19,106.73-115.39,27.69-149.43a41.84,41.84,0,0,1-31,13.49c-16.83,0-33.66-10-38.78-32.53-9.81-5.77-34-26-35.77-65.2,0-32.89,19.61-75.58,77.89-77.89m0-1.73h-.07c-14,.56-26.64,3.48-37.44,8.69A71.23,71.23,0,0,0,187.71,120a77,77,0,0,0-13.42,25.26,87.94,87.94,0,0,0-4.06,26.24s0,0,0,.08c.76,17.33,5.87,32.83,15.17,46.06a73.8,73.8,0,0,0,20.81,20.16c2.54,10.56,7.88,19.18,15.46,25A40.46,40.46,0,0,0,246.52,271,43.94,43.94,0,0,0,278,257.84c17.21,7.67,30.4,19.67,38.17,34.75A73.12,73.12,0,0,1,323,339a78.45,78.45,0,0,1-23.26,43.47c-13.28,12.52-30.55,19.78-49.94,21a1.73,1.73,0,0,0,.09,3.46h1.5c86,0,156-70.66,156-157.52A157.39,157.39,0,0,0,249.86,91.9Z"/><path d="M265.77,252.81c-5.4,5-11.63,8.65-19.61,8.65-7.53,0-14.46-3.83-19.76-8.38,7-.5,12.16.66,19.71.66C252.52,253.74,257.83,252.57,265.77,252.81Z"/><path d="M246.16,261.75c-8.35,0-15.45-4.6-19.95-8.45l-.53-.46.7-.05a71.67,71.67,0,0,1,11.06.25c2.68.2,5.46.41,8.67.41,2.78,0,5.33-.22,8-.45a95.88,95.88,0,0,1,11.64-.48l.7,0L266,253C259.58,259,253.28,261.75,246.16,261.75Zm-19-8.43c4.43,3.69,11.18,7.86,19,7.86,6.77,0,12.79-2.58,18.89-8.1a96.55,96.55,0,0,0-10.86.49c-2.71.24-5.28.46-8.08.46-3.24,0-6-.21-8.71-.42A76.63,76.63,0,0,0,227.14,253.32Z"/><path class="cls-13" d="M305,155.57c-6.35-17.89-20.2-25.39-34-26,2.31-8.65,15-9.23,21.35-6.34C302.83,128.06,306.11,141.72,305,155.57Z"/><path class="cls-13" d="M305,156.43a.85.85,0,0,1-.82-.57c-5.49-15.48-17.62-24.74-33.26-25.39a.86.86,0,0,1-.66-.35.85.85,0,0,1-.14-.74,10.59,10.59,0,0,1,6-6.88c5.35-2.53,12.38-1.93,16.55,0,9.63,4.38,14.56,16.78,13.2,33.17a.88.88,0,0,1-.75.79ZM272.09,128.8c14.57,1,26.09,9.19,32.21,22.8.29-13.67-4.22-23.84-12.4-27.55-3.71-1.69-10.27-2.26-15.09,0A9,9,0,0,0,272.09,128.8Z"/><path class="cls-13" d="M187.91,155.57c6.35-17.89,20.2-25.39,34-26-2.3-8.65-15-9.23-21.34-6.34C190,128.06,186.76,141.72,187.91,155.57Z"/><path class="cls-13" d="M187.91,156.43h-.11a.87.87,0,0,1-.75-.79c-1.37-16.39,3.57-28.79,13.2-33.17,4.17-1.9,11.2-2.5,16.54,0a10.58,10.58,0,0,1,6,6.88.85.85,0,0,1-.14.74.86.86,0,0,1-.66.35c-15.64.65-27.77,9.91-33.26,25.39A.85.85,0,0,1,187.91,156.43Zm20.74-33.87a19.25,19.25,0,0,0-7.69,1.49c-8.17,3.71-12.68,13.88-12.39,27.55,6.12-13.61,17.64-21.81,32.21-22.8a9,9,0,0,0-4.73-4.73A17.51,17.51,0,0,0,208.65,122.56Z"/><path d="M291.82,198.85c5.94,11.8,3,21.79-6.19,24.09-11,2.76-16.84-6.1-20-18.58-2.07-8.26-9.43-12-1.38-19.27C271.17,178.89,285.89,187.06,291.82,198.85Z"/><path d="M270.27,183c7.37,0,17,6.89,21.55,15.89,5.94,11.8,3,21.79-6.19,24.09a16,16,0,0,1-3.86.51c-8.56,0-13.37-8.15-16.1-19.09-2.07-8.26-9.43-12-1.38-19.27a8.68,8.68,0,0,1,6-2.13m0-1.73h0a10.47,10.47,0,0,0-7.14,2.57c-6.58,5.92-4.15,10.42-1.81,14.78a26.36,26.36,0,0,1,2.67,6.2c3.38,13.53,9.36,20.4,17.78,20.4a17.73,17.73,0,0,0,4.28-.56,13.25,13.25,0,0,0,9.2-7.41c2.38-5.2,1.71-12-1.88-19.14-4.76-9.44-14.9-16.84-23.1-16.84Z"/><path d="M201,198.85c-5.93,11.8-3,21.79,6.2,24.09,11,2.76,16.84-6.1,20-18.58,2.06-8.26,9.43-12,1.38-19.27C221.64,178.89,206.93,187.06,201,198.85Z"/><path d="M222.55,183a8.68,8.68,0,0,1,6,2.13c8.05,7.24.68,11-1.38,19.27-2.73,10.94-7.54,19.09-16.1,19.09a16,16,0,0,1-3.86-.51c-9.2-2.3-12.13-12.29-6.2-24.09,4.54-9,14.18-15.89,21.56-15.89m0-1.73c-8.2,0-18.35,7.4-23.1,16.84-3.6,7.14-4.26,13.94-1.88,19.14a13.21,13.21,0,0,0,9.2,7.41,17.6,17.6,0,0,0,4.28.56c8.41,0,14.39-6.87,17.78-20.4a26.35,26.35,0,0,1,2.66-6.2c2.35-4.36,4.77-8.86-1.81-14.78a10.43,10.43,0,0,0-7.13-2.57Z"/><path d="M239,268.57c4-1.05,4.36-5.3,4.49-8h6.35c0,2.88.92,7.35,5.11,8,0,0-6,1.54-8,1.55S239,268.57,239,268.57Z"/><path d="M247,270.47c-2.06,0-7.78-1.56-8-1.62l-1-.29,1-.27c3.49-.92,4.12-4.41,4.28-7.71v-.27h6.91v.28c0,2.1.59,7.06,4.88,7.76l1.36.22-1.34.34c-.25.07-6.09,1.55-8.07,1.56Zm-7-1.94a42,42,0,0,0,7,1.36h0a45.27,45.27,0,0,0,6.83-1.26c-3.53-1.31-4.15-5.58-4.22-7.74h-5.8C243.68,263,243.34,267,240,268.53Z"/></svg>