<?xml version="1.0" standalone="no"?>
<!DOCTYPE svg PUBLIC "-//W3C//DTD SVG 20010904//EN"
 "http://www.w3.org/TR/2001/REC-SVG-20010904/DTD/svg10.dtd">
<svg version="1.0" xmlns="http://www.w3.org/2000/svg"
 width="300.000000pt" height="300.000000pt" viewBox="0 0 300.000000 300.000000"
 preserveAspectRatio="xMidYMid meet">
<metadata>
Created by potrace 1.10, written by Peter Selinger 2001-2011
</metadata>
<g transform="translate(0.000000,300.000000) scale(0.100000,-0.100000)"
fill="#000000" stroke="none">
<path d="M1205 2970 c-441 -88 -827 -379 -1034 -780 -99 -192 -162 -417 -160
-577 1 -94 8 -72 34 102 90 614 559 1102 1178 1225 58 12 66 13 173 25 33 3
67 11 75 16 25 16 -172 8 -266 -11z"/>
<path d="M1536 2980 c12 -5 74 -16 138 -25 209 -29 344 -71 527 -167 315 -164
577 -471 690 -810 32 -95 78 -316 80 -378 0 -19 4 -44 9 -55 18 -42 10 148
-11 248 -90 449 -376 828 -779 1036 -134 70 -263 115 -402 142 -99 19 -294 26
-252 9z"/>
<path d="M1273 2805 c-85 -16 -113 -29 -113 -54 0 -26 32 -51 57 -45 23 6 26
0 38 -71 l6 -40 -78 78 c-43 42 -86 77 -94 77 -30 0 -47 -34 -54 -107 -4 -40
-11 -73 -16 -73 -5 0 -20 18 -34 40 -38 61 -64 69 -127 39 -69 -32 -98 -56
-98 -81 0 -11 14 -46 31 -77 l32 -56 -54 53 c-30 28 -62 52 -72 52 -31 0 -40
-41 -24 -104 17 -70 12 -74 -68 -51 -53 16 -58 16 -76 -1 -26 -24 -24 -43 11
-79 l30 -30 -41 3 c-54 6 -96 -14 -130 -61 -52 -72 -32 -167 43 -212 22 -13
28 -23 28 -51 0 -55 -15 -74 -58 -74 -21 0 -43 5 -50 12 -19 19 -14 73 8 93
24 21 26 58 5 75 -36 30 -105 -55 -105 -129 0 -82 61 -141 146 -141 42 0 51 4
85 40 38 40 54 84 47 131 -2 18 5 29 27 44 46 32 75 82 75 131 0 40 2 43 26
41 39 -3 53 26 32 64 l-18 31 28 -7 c39 -8 66 22 57 64 -4 20 -3 31 4 31 6 0
11 -4 11 -10 0 -5 12 -17 26 -27 26 -16 27 -16 44 5 10 12 24 22 31 22 16 0
98 47 127 73 12 12 29 22 38 23 25 4 44 25 44 49 0 17 10 27 42 40 40 16 42
16 71 -6 25 -18 33 -20 49 -10 11 7 27 9 38 6 30 -10 53 23 46 64 -4 20 -9 59
-12 86 -6 45 -4 51 17 60 37 16 46 41 25 64 -11 12 -22 21 -25 20 -3 -1 -38
-7 -78 -14z m90 -30 c1 -6 -11 -11 -28 -13 -16 -2 -33 -7 -37 -11 -4 -3 0 -48
8 -99 15 -86 14 -115 -2 -99 -4 4 -14 48 -24 99 -9 51 -21 92 -26 91 -44 -7
-68 -6 -71 3 -2 6 29 17 79 26 91 17 99 17 101 3z m-105 -226 c7 -19 -21 -8
-39 15 l-20 25 -59 -22 c-48 -17 -60 -25 -60 -42 0 -26 -29 -69 -30 -44 -1 52
24 235 33 241 9 5 166 -150 175 -173z m-308 69 c14 -15 19 -30 15 -45 -4 -18
-1 -23 14 -23 27 0 51 -26 51 -55 0 -40 -127 -129 -147 -102 -20 26 -105 178
-102 181 18 16 118 66 131 66 10 0 27 -10 38 -22z m-106 -268 c-8 -8 -27 7
-67 50 -31 33 -58 60 -60 60 -2 0 6 -36 17 -79 11 -44 18 -82 15 -85 -3 -3
-41 5 -85 19 -43 14 -81 25 -84 25 -2 0 24 -29 59 -64 35 -36 60 -69 57 -75
-4 -7 -39 22 -86 72 -43 45 -75 86 -70 90 4 5 41 -1 81 -13 41 -12 81 -23 90
-26 15 -4 15 3 -2 73 -33 137 -30 139 63 46 59 -59 79 -86 72 -93z m-267 -120
c66 -40 66 -130 1 -185 -87 -73 -218 24 -174 129 30 71 107 97 173 56z m-207
-196 c0 -3 -11 -19 -25 -36 -66 -78 14 -190 104 -144 39 20 54 49 49 92 -3 23
0 34 9 34 9 0 13 -15 13 -46 0 -39 -5 -51 -34 -80 -38 -38 -86 -45 -135 -19
-37 18 -64 76 -56 116 10 42 75 115 75 83z"/>
<path d="M1090 2666 c0 -19 -3 -48 -6 -66 -7 -30 -6 -32 17 -25 13 4 36 13 51
19 l27 11 -44 47 -45 47 0 -33z"/>
<path d="M848 2590 c-21 -11 -38 -23 -38 -26 0 -4 22 -42 37 -63 1 -2 23 9 48
24 39 22 46 31 43 53 -4 35 -39 39 -90 12z m43 -30 c-25 -21 -41 -26 -41 -12
0 9 38 30 55 31 6 0 -1 -9 -14 -19z"/>
<path d="M902 2504 c-40 -24 -42 -27 -29 -47 7 -12 17 -28 21 -35 6 -10 17 -7
47 10 58 33 73 52 59 77 -14 28 -46 26 -98 -5z m68 -14 c0 -5 -13 -16 -29 -25
-38 -19 -51 -1 -14 19 33 18 43 19 43 6z"/>
<path d="M474 2220 c-59 -24 -72 -104 -25 -151 40 -39 82 -39 122 0 56 56 30
143 -46 156 -17 2 -40 0 -51 -5z m85 -44 c21 -26 9 -79 -21 -96 -25 -13 -31
-13 -55 0 -34 19 -43 69 -18 94 20 20 78 21 94 2z"/>
<path d="M1500 2800 c-6 -11 -11 -70 -13 -131 -2 -95 0 -113 15 -122 26 -17
58 17 58 61 0 27 3 33 16 28 9 -3 27 -6 40 -6 21 0 24 -4 24 -38 0 -25 6 -44
18 -54 26 -22 72 -21 96 1 19 17 27 19 62 10 31 -8 44 -18 55 -42 12 -26 58
-64 81 -66 4 -1 16 9 28 21 20 22 21 22 68 5 27 -10 56 -15 65 -11 23 9 21 -9
-3 -31 -24 -22 -23 -63 2 -79 13 -8 22 -5 41 12 35 33 47 28 47 -21 0 -60 54
-134 93 -128 4 0 7 -7 7 -17 0 -9 16 -41 36 -71 28 -41 48 -59 84 -74 44 -19
48 -22 39 -44 -14 -39 -11 -81 11 -124 51 -100 182 -107 240 -14 18 29 22 47
18 91 -4 45 -10 61 -38 90 -19 19 -51 39 -72 45 -33 9 -37 12 -28 29 5 10 10
38 10 63 0 34 -8 55 -37 97 -55 77 -63 80 -115 44 -71 -51 -75 -50 -26 4 50
53 53 73 17 93 -17 8 -30 0 -84 -52 l-65 -62 0 46 0 47 38 0 c40 0 82 23 82
44 0 7 -9 21 -19 30 -16 15 -30 16 -77 10 l-57 -7 19 32 c14 24 16 36 8 49
-17 26 -50 26 -68 0 -9 -12 -16 -20 -17 -18 0 3 -2 18 -4 34 -5 35 -44 77
-100 107 -49 26 -69 21 -93 -21 -9 -17 -27 -47 -38 -67 l-21 -36 -13 88 c-12
83 -32 125 -59 125 -10 0 -93 -84 -119 -121 -17 -24 -17 -22 -22 60 -4 64 -9
86 -22 95 -24 14 -58 -18 -58 -56 0 -26 -3 -28 -40 -28 -40 0 -40 0 -40 38 0
21 -5 43 -12 50 -18 18 -46 14 -58 -8z m42 -58 l-4 -52 40 0 c22 0 54 -3 71
-6 l31 -6 0 51 c0 40 3 51 16 51 13 0 15 -8 10 -47 -3 -27 -8 -78 -11 -115 -6
-62 -12 -77 -27 -63 -2 3 -2 27 2 54 l6 49 -50 6 c-98 11 -96 12 -96 -44 0
-39 -4 -50 -16 -50 -12 0 -14 7 -10 28 2 15 8 67 11 115 5 60 11 87 18 84 8
-2 11 -22 9 -55z m342 -11 c10 -16 39 -232 32 -239 -10 -9 -26 19 -26 45 0 17
-12 25 -60 41 l-60 21 -19 -25 c-17 -22 -41 -33 -41 -18 0 8 154 184 162 184
4 0 9 -4 12 -9z m273 -129 c18 -25 16 -56 -8 -86 -25 -32 -64 -34 -119 -6
l-39 20 -16 -30 c-15 -29 -35 -40 -35 -20 0 5 23 52 51 104 l50 95 52 -31 c28
-16 57 -37 64 -46z m75 -108 c-23 -27 -39 -50 -37 -52 2 -2 43 1 91 8 56 7 90
8 97 1 9 -9 -14 -14 -103 -23 -25 -3 -25 -4 -21 -88 3 -77 2 -83 -13 -71 -12
10 -16 31 -16 83 l0 71 -32 -7 c-18 -3 -41 -16 -51 -28 -11 -12 -21 -18 -27
-12 -5 5 21 45 62 97 47 58 74 85 81 78 6 -6 -4 -26 -31 -57z m207 -106 c-2
-22 -156 -161 -169 -153 -8 5 16 34 71 86 85 79 100 89 98 67z m106 -125 c31
-49 35 -64 31 -98 -10 -84 -115 -126 -177 -72 -39 34 -82 98 -73 107 23 23
160 119 171 119 6 1 28 -25 48 -56z m124 -233 c78 -78 29 -200 -79 -200 -62 0
-110 54 -110 122 1 68 44 107 117 108 33 0 48 -6 72 -30z"/>
<path d="M1835 2672 c-48 -56 -49 -60 -13 -70 18 -6 41 -13 50 -17 15 -6 16
-2 11 32 -3 21 -8 49 -12 63 l-6 26 -30 -34z"/>
<path d="M2027 2599 l-28 -48 41 -21 c51 -26 81 -23 97 10 15 31 2 54 -48 86
l-35 22 -27 -49z m68 -13 c26 -19 13 -50 -17 -41 -35 11 -43 22 -28 40 15 18
21 19 45 1z"/>
<path d="M2422 2239 l-72 -50 26 -38 c24 -37 60 -61 90 -61 31 0 72 30 83 61
9 27 8 39 -9 75 -34 69 -38 70 -118 13z m98 -55 c0 -46 -37 -72 -78 -55 -15 6
-33 20 -39 31 -11 16 -7 23 35 54 43 32 48 33 65 19 9 -9 17 -30 17 -49z"/>
<path d="M2529 2011 c-32 -33 -37 -67 -14 -110 43 -83 165 -50 165 45 0 35 -5
47 -31 68 -41 35 -83 34 -120 -3z m109 -23 c15 -13 16 -70 0 -86 -17 -17 -74
-15 -93 4 -10 10 -15 29 -13 48 5 49 63 68 106 34z"/>
<path d="M1378 2445 c-162 -41 -285 -154 -337 -312 -30 -89 -29 -225 3 -314
29 -82 86 -170 138 -212 21 -18 51 -54 65 -82 14 -27 39 -65 57 -83 54 -59
135 -89 163 -61 8 8 16 7 30 -2 28 -17 83 -4 132 31 l41 30 42 -21 c64 -33
151 -121 183 -186 37 -76 49 -237 24 -318 -36 -117 -124 -226 -221 -276 -46
-24 -58 -47 -33 -65 21 -16 53 -10 156 26 121 42 223 106 326 204 203 193 303
422 303 693 0 150 -18 245 -70 370 -115 277 -346 479 -641 563 -98 28 -281 35
-361 15z m357 -45 c204 -55 382 -175 507 -343 220 -297 244 -690 61 -1017 -36
-64 -74 -111 -153 -190 -120 -120 -204 -173 -358 -226 -114 -40 -160 -44 -85
-9 138 63 242 220 259 389 18 174 -83 359 -243 443 l-58 31 -35 -29 c-44 -37
-106 -57 -122 -41 -9 9 -8 12 6 12 23 0 96 40 96 53 0 5 -10 7 -22 3 -13 -3
-72 -6 -133 -6 l-110 0 25 -20 c14 -11 40 -22 58 -26 45 -9 41 -28 -5 -21 -61
10 -146 93 -160 157 -3 14 -26 41 -52 61 -85 66 -152 194 -167 321 -17 148 70
331 196 413 35 22 134 60 180 69 55 10 238 -4 315 -24z"/>
<path d="M1176 2249 c-37 -32 -61 -105 -54 -164 3 -30 3 -29 29 20 30 60 89
104 147 112 49 7 52 14 16 42 -40 32 -95 28 -138 -10z m84 -3 c0 -1 -22 -17
-50 -34 -52 -33 -66 -30 -27 5 27 25 77 44 77 29z"/>
<path d="M1646 2259 c-36 -28 -33 -35 16 -42 55 -7 117 -52 142 -104 25 -51
36 -54 36 -10 0 96 -58 177 -128 177 -25 0 -49 -8 -66 -21z m118 -30 c14 -11
26 -27 26 -35 0 -14 -37 7 -84 48 -22 18 33 6 58 -13z"/>
<path d="M1274 1891 c-82 -50 -121 -166 -74 -216 34 -36 94 -35 127 3 27 29
75 144 74 177 0 26 -37 55 -70 55 -14 0 -40 -9 -57 -19z m87 -21 c5 0 9 -8 9
-18 0 -22 -45 -139 -61 -158 -14 -17 -71 -18 -87 -2 -20 20 -14 82 11 119 24
36 83 72 105 64 8 -3 18 -5 23 -5z"/>
<path d="M1588 1899 c-38 -22 -39 -44 -7 -126 40 -100 61 -123 111 -123 52 0
88 35 88 85 0 102 -122 205 -192 164z m99 -47 c79 -50 84 -172 8 -172 -38 0
-60 25 -88 100 -20 54 -22 87 -4 93 17 7 57 -3 84 -21z"/>
<path d="M174 1671 c-39 -17 -74 -70 -74 -111 0 -56 15 -87 52 -110 36 -22 82
-20 107 4 11 12 18 11 47 -6 55 -32 118 -4 139 62 3 10 19 20 35 23 65 13 76
87 19 129 -22 17 -30 18 -48 8 -17 -8 -30 -8 -57 0 -29 10 -41 9 -74 -8 -32
-16 -41 -17 -52 -6 -18 18 -68 26 -94 15z m84 -36 c11 -11 -13 -24 -34 -19
-27 7 -64 -18 -64 -43 0 -10 4 -11 18 -2 50 31 109 -29 77 -77 -21 -33 -87
-34 -109 -2 -16 23 -21 83 -10 113 13 32 99 53 122 30z m150 0 c11 -11 -13
-24 -34 -19 -27 7 -64 -18 -64 -43 0 -11 4 -11 20 -1 28 18 72 -1 84 -34 14
-39 -14 -68 -65 -68 -47 0 -69 27 -69 85 0 41 22 74 60 88 14 5 61 0 68 -8z
m86 2 c38 -27 -2 -95 -41 -71 -25 16 -29 55 -7 71 10 7 21 13 24 13 3 0 14 -6
24 -13z"/>
<path d="M172 1537 c-16 -19 8 -50 34 -45 28 5 26 52 -2 56 -11 2 -26 -3 -32
-11z"/>
<path d="M324 1535 c-9 -23 3 -45 24 -45 29 0 48 26 32 45 -7 8 -21 15 -32 15
-10 0 -21 -7 -24 -15z"/>
<path d="M452 1617 c-15 -17 1 -42 23 -33 18 6 17 37 -1 43 -6 2 -16 -2 -22
-10z"/>
<path d="M2519 1667 c-32 -16 -38 -62 -10 -77 21 -11 30 -50 11 -50 -5 0 -17
-11 -25 -24 -34 -51 38 -100 110 -76 26 9 44 9 69 0 19 -6 46 -8 60 -4 31 7
76 58 76 85 0 18 10 23 38 20 8 -1 23 5 33 15 22 20 26 86 6 103 -20 16 -337
23 -368 8z m303 -62 c-6 -48 -22 -44 -22 5 0 28 4 38 13 34 8 -3 11 -17 9 -39z
m48 5 c0 -22 -4 -40 -9 -40 -9 0 -20 67 -12 75 13 14 21 1 21 -35z m-240 17
c0 -8 -9 -22 -20 -32 l-21 -19 26 -13 c29 -16 34 -53 9 -78 -22 -22 -107 -17
-112 6 -3 14 4 16 41 12 28 -3 47 -1 52 6 9 16 -13 41 -36 41 -24 0 -24 5 2
41 l20 29 -40 0 c-23 0 -41 5 -41 10 0 6 27 10 60 10 44 0 60 -4 60 -13z m140
0 c0 -8 -9 -22 -20 -32 l-21 -19 26 -13 c29 -16 34 -53 9 -78 -22 -22 -107
-17 -112 6 -3 14 4 16 41 12 28 -3 47 -1 52 6 9 16 -13 41 -36 41 -24 0 -24 5
2 41 l20 29 -40 0 c-23 0 -41 5 -41 10 0 6 27 10 60 10 44 0 60 -4 60 -13z
m-109 -50 c-1 -12 -15 -9 -19 4 -3 6 1 10 8 8 6 -3 11 -8 11 -12z"/>
<path d="M2978 1435 c-4 -22 -17 -98 -29 -170 -87 -536 -443 -965 -956 -1149
-88 -32 -173 -52 -329 -76 -70 -10 -129 -22 -132 -25 -13 -13 167 -3 256 14
361 70 691 279 916 578 170 226 293 571 284 793 -3 66 -4 70 -10 35z"/>
<path d="M11 1387 c-2 -159 60 -385 160 -577 208 -403 587 -689 1036 -779 55
-12 136 -21 180 -21 88 1 82 14 -12 25 -336 39 -597 150 -840 355 -81 69 -93
81 -176 180 -153 182 -266 434 -309 690 -35 209 -37 218 -39 127z"/>
<path d="M315 1305 c-88 -23 -119 -44 -108 -70 2 -8 21 -15 41 -17 47 -4 52
-26 18 -71 -30 -39 -32 -50 -11 -67 13 -11 21 -8 46 15 28 27 30 28 46 12 10
-9 12 -17 6 -17 -22 0 -53 -66 -53 -112 0 -57 31 -106 84 -132 32 -16 44 -17
74 -8 20 6 37 10 39 8 2 -2 -11 -31 -29 -65 -30 -58 -31 -62 -15 -78 16 -17
22 -17 100 0 159 33 181 44 153 82 -12 16 -17 16 -84 1 -39 -9 -76 -16 -81
-16 -6 0 6 34 27 76 l37 76 -22 18 c-16 12 -23 29 -23 51 0 41 -36 94 -77 114
-31 15 -31 15 -16 46 27 54 -1 172 -42 176 -11 1 -60 -9 -110 -22z m134 -49
c16 -63 14 -83 -9 -106 -24 -24 -82 -27 -101 -4 -12 15 -17 12 -46 -22 -18
-22 -33 -34 -33 -29 0 6 13 25 28 43 26 31 27 37 18 78 -8 32 -15 43 -26 40
-8 -3 -26 -8 -40 -11 -14 -4 -21 -4 -17 1 10 10 161 52 193 53 17 1 24 -8 33
-43z m57 -200 c28 -28 34 -41 34 -78 0 -50 -18 -82 -60 -103 -78 -40 -160 17
-160 111 0 54 53 104 110 104 34 0 48 -6 76 -34z m66 -158 c-48 -80 -93 -168
-87 -168 9 0 183 39 203 45 6 3 12 1 12 -4 0 -8 -232 -63 -238 -56 -6 6 112
215 121 215 5 0 0 -15 -11 -32z"/>
<path d="M363 1277 c-23 -7 -44 -15 -48 -18 -3 -4 -1 -28 6 -54 13 -52 40 -72
83 -61 39 10 50 39 36 97 -13 53 -14 53 -77 36z m55 -60 c2 -28 -1 -38 -17
-47 -17 -8 -24 -7 -41 10 -28 28 -26 56 8 68 39 15 47 10 50 -31z"/>
<path d="M379 1065 c-34 -18 -53 -65 -45 -109 14 -76 111 -103 167 -47 82 82
-20 212 -122 156z m99 -31 c17 -12 22 -25 22 -59 0 -40 -3 -46 -31 -61 -57
-29 -109 2 -109 66 0 44 26 70 70 70 14 0 36 -7 48 -16z"/>
<path d="M2567 1270 c-42 -37 -78 -140 -59 -171 10 -15 9 -19 -1 -19 -7 0 -18
-5 -25 -12 -17 -17 2 -45 49 -68 22 -12 37 -25 34 -30 -3 -4 -35 -12 -71 -16
-77 -8 -112 -31 -93 -62 6 -10 53 -40 105 -68 87 -46 94 -48 110 -32 20 20 13
32 -37 64 -22 13 -37 29 -34 34 3 4 35 12 70 15 49 6 69 12 80 27 21 30 10 44
-72 89 -41 23 -73 43 -71 44 2 2 41 -8 87 -21 76 -22 86 -23 100 -9 19 19 41
90 41 135 0 108 -133 171 -213 100z m128 -4 c53 -23 72 -71 57 -143 -6 -31
-16 -61 -20 -65 -11 -11 -203 42 -209 58 -2 6 4 35 14 65 13 39 27 60 52 76
40 27 59 28 106 9z m-100 -258 c52 -29 92 -55 89 -58 -3 -3 -60 -14 -126 -25
l-120 -20 81 -43 c44 -24 83 -48 87 -54 4 -6 -39 14 -94 43 -55 30 -98 56 -96
59 3 3 60 14 127 25 l122 21 -87 48 c-80 43 -99 56 -82 56 3 0 48 -24 99 -52z"/>
<path d="M2581 1236 c-29 -31 -55 -115 -38 -121 71 -27 179 -51 182 -42 2 7 9
29 15 50 24 78 -17 137 -95 137 -31 0 -47 -6 -64 -24z m96 -7 c36 -13 43 -25
43 -77 0 -54 -14 -60 -91 -37 -51 16 -59 22 -59 42 0 34 17 62 43 73 29 12 31
12 64 -1z"/>
<path d="M2325 819 c-16 -16 -14 -25 30 -123 26 -57 55 -112 65 -121 16 -14
18 -14 30 1 11 12 11 22 2 46 -10 28 -9 34 16 64 24 30 31 33 63 29 26 -3 41
0 50 11 22 27 -18 52 -133 83 -103 27 -108 28 -123 10z m129 -39 c113 -30 151
-47 80 -36 -40 7 -42 6 -82 -41 -37 -45 -39 -50 -26 -73 7 -14 13 -32 13 -40
0 -8 -21 28 -46 80 -56 118 -64 140 -55 140 4 0 56 -13 116 -30z"/>
<path d="M2378 730 c25 -57 27 -59 45 -42 11 9 28 29 38 44 l19 26 -54 16
c-30 9 -59 16 -64 16 -6 0 2 -27 16 -60z m50 9 c-2 -6 -8 -10 -13 -10 -5 0
-11 4 -13 10 -2 6 4 11 13 11 9 0 15 -5 13 -11z"/>
<path d="M645 708 c-118 -47 -139 -62 -124 -90 8 -15 17 -17 45 -12 30 5 40 2
65 -22 24 -23 29 -36 27 -63 -2 -24 2 -37 15 -45 23 -14 26 -9 72 126 37 107
37 110 19 128 -18 18 -22 17 -119 -22z m112 0 c-2 -7 -19 -59 -38 -115 -18
-57 -36 -103 -40 -103 -7 0 5 44 40 144 12 33 19 61 18 63 -2 2 -32 -7 -66
-20 l-63 -24 41 -35 c23 -19 41 -39 41 -44 0 -4 -20 11 -44 35 l-43 42 -37
-15 c-20 -8 -36 -12 -36 -8 0 8 197 89 219 91 7 1 11 -5 8 -11z m-61 -74 c-5
-14 -9 -15 -19 -5 -9 9 -9 14 3 21 18 11 24 6 16 -16z"/>
<path d="M2143 644 c-3 -8 -1 -26 5 -39 16 -35 131 -165 146 -165 18 0 116 88
116 103 0 7 -4 18 -9 26 -7 11 -18 7 -58 -21 l-48 -36 -63 74 c-64 76 -78 85
-89 58z m72 -70 c79 -103 74 -101 131 -55 26 22 50 38 53 36 2 -3 2 -6 0 -8
-2 -2 -27 -22 -55 -45 l-52 -42 -63 78 c-82 101 -83 102 -73 102 5 -1 32 -30
59 -66z"/>
<path d="M809 608 c-57 -79 -91 -147 -84 -168 11 -33 30 -23 71 38 l39 57 7
-80 c9 -90 21 -125 42 -125 12 0 115 149 131 191 3 9 -1 22 -10 29 -19 16 -37
3 -73 -55 -26 -40 -26 -40 -33 -15 -4 14 -7 49 -8 78 -2 99 -32 118 -82 50z
m64 -109 l12 -124 49 80 c59 95 55 89 61 84 2 -3 -22 -46 -55 -97 -32 -51 -60
-90 -63 -85 -2 4 -7 42 -11 83 -4 41 -9 95 -13 119 l-6 43 -53 -83 c-30 -46
-54 -80 -54 -75 0 16 110 190 116 183 2 -2 10 -60 17 -128z"/>
<path d="M2091 606 c-10 -11 -7 -25 14 -66 15 -29 25 -54 22 -56 -2 -2 -38 10
-81 28 -73 29 -78 30 -94 14 -16 -16 -14 -23 33 -112 59 -112 69 -124 92 -101
15 15 14 20 -10 67 -30 57 -35 79 -14 62 23 -19 148 -64 162 -58 8 3 15 15 15
27 0 32 -101 209 -119 209 -5 0 -14 -6 -20 -14z m69 -96 c28 -50 50 -94 48
-99 -2 -4 -52 13 -113 39 -60 26 -111 46 -113 45 -1 -1 19 -39 44 -84 26 -45
44 -84 41 -87 -3 -3 -28 38 -57 91 -29 53 -50 98 -48 100 2 2 55 -19 118 -46
63 -27 116 -49 117 -49 1 0 -21 38 -48 85 -27 47 -49 88 -49 90 0 15 14 -5 60
-85z"/>
<path d="M1037 522 c-17 -19 -97 -183 -97 -200 0 -5 7 -15 16 -22 22 -19 35
-2 84 114 36 85 40 100 28 112 -12 13 -17 12 -31 -4z m-3 -68 c-15 -32 -35
-79 -45 -103 -11 -24 -22 -42 -25 -39 -2 3 12 41 32 84 19 44 40 90 45 103 5
13 12 22 14 19 3 -3 -7 -31 -21 -64z"/>
<path d="M1891 506 c-6 -8 -20 -12 -30 -9 -25 6 -127 -25 -142 -44 -11 -13 -9
-33 14 -121 32 -120 42 -139 64 -120 11 9 14 24 9 55 -5 42 -5 42 29 49 39 7
70 36 62 59 -7 17 -28 19 -77 5 -33 -10 -54 1 -47 23 2 8 109 48 114 44 1 -1
17 -41 36 -87 26 -65 38 -85 53 -85 30 0 28 29 -11 130 -40 103 -55 124 -74
101z m86 -209 c-4 -12 -77 174 -76 193 0 8 18 -30 40 -85 21 -55 38 -103 36
-108z m-111 174 c-3 -5 -22 -12 -42 -16 -79 -14 -83 -18 -71 -69 6 -25 13 -46
17 -46 4 0 29 7 56 15 56 17 67 18 60 7 -3 -5 -30 -14 -61 -21 -60 -13 -61
-16 -34 -88 5 -13 5 -23 0 -23 -11 0 -64 201 -54 211 4 4 33 14 63 22 68 19
73 19 66 8z"/>
<path d="M1093 498 c-21 -33 -70 -214 -62 -229 10 -19 134 -63 155 -55 9 4 14
15 12 28 -2 17 -16 28 -55 43 -77 29 -70 67 7 44 35 -11 43 -10 57 4 15 15 15
18 -1 36 -10 11 -31 23 -47 26 -20 5 -29 13 -29 26 0 23 2 23 62 5 25 -8 49
-11 53 -8 4 4 5 -41 1 -99 -6 -85 -4 -108 7 -117 20 -17 37 6 46 65 l8 48 17
-39 c10 -21 25 -46 33 -55 14 -14 19 -11 54 28 l39 44 0 -50 c0 -55 19 -84 39
-60 18 22 36 224 21 241 -17 22 -33 11 -81 -55 -23 -33 -47 -58 -52 -56 -5 1
-20 30 -34 62 -31 73 -42 88 -61 80 -8 -3 -22 1 -31 9 -21 19 -96 46 -127 46
-12 0 -26 -6 -31 -12z m93 -29 c38 -12 64 -24 59 -26 -6 -2 -37 6 -68 16 -43
15 -59 17 -62 8 -2 -7 -8 -27 -14 -44 -11 -37 -13 -35 52 -53 26 -7 47 -16 47
-21 0 -4 -25 1 -55 11 l-56 19 -9 -25 c-27 -69 -27 -69 44 -88 36 -10 66 -22
66 -27 0 -7 -54 7 -122 33 l-26 10 35 104 c19 57 36 104 38 104 2 0 34 -10 71
-21z m149 -131 l39 -87 47 68 c76 108 82 109 74 20 -12 -121 -25 -168 -19 -66
3 49 8 96 11 105 3 9 -20 -18 -51 -60 -32 -43 -61 -78 -65 -78 -4 0 -23 37
-42 81 -31 76 -34 80 -40 53 -4 -16 -8 -49 -9 -74 -1 -25 -6 -56 -11 -70 -6
-17 -7 -2 -4 45 8 110 17 167 25 158 4 -4 24 -47 45 -95z"/>
<path d="M1542 427 c-16 -19 -3 -224 15 -238 10 -9 17 -8 28 1 13 11 14 31 9
119 -8 121 -22 154 -52 118z m31 -114 c5 -99 3 -123 -7 -112 -7 8 -13 219 -6
219 4 0 10 -48 13 -107z"/>
<path d="M1630 339 c-9 -16 -8 -26 5 -45 8 -13 20 -24 25 -24 5 0 17 11 25 24
20 30 6 66 -25 66 -11 0 -24 -9 -30 -21z m40 -24 c0 -8 -4 -15 -10 -15 -5 0
-10 7 -10 15 0 8 5 15 10 15 6 0 10 -7 10 -15z"/>
</g>
</svg>
